HIERARCHY
ROOT Hips
{
  OFFSET -51.5309 100.417 251.408
  CHANNELS 6 Xposition Yposition Zposition Zrotation Xrotation Yrotation
  JOINT RightUpLeg
  {
    OFFSET -8.9458 -8.66707 0.101652
    CHANNELS 3 Zrotation Xrotation Yrotation
    JOINT RightLeg
    {
      OFFSET 0 -44.4227 1.3727
      CHANNELS 3 Zrotation Xrotation Yrotation
      JOINT RightFoot
      {
        OFFSET 0.253549 -42.0924 -1.46059
        CHANNELS 3 Zrotation Xrotation Yrotation
        JOINT RightToes
        {
          OFFSET 0.04 -4.41509 8.4991
          CHANNELS 3 Zrotation Xrotation Yrotation
          End Site
          {
            OFFSET -0.08 -0.137448 9.77979
          }
        }
      }
    }
  }
  JOINT Spine
  {
    OFFSET 0 11.8905 0
    CHANNELS 3 Zrotation Xrotation Yrotation
    JOINT Spine1
    {
      OFFSET 0 25.6574 0.127663
      CHANNELS 3 Zrotation Xrotation Yrotation
      JOINT HEad
      {
        OFFSET 0 8.73416 0.011341
        CHANNELS 3 Zrotation Xrotation Yrotation
        End Site
        {
          OFFSET -0.29 12.7742 2.51395
        }
      }
      JOINT LeftShoulder1
      {
        OFFSET 8.99 -0.362252 -0.22
        CHANNELS 3 Zrotation Xrotation Yrotation
        JOINT LeftArm
        {
          OFFSET 10.2827 -0.00338 0.322123
          CHANNELS 3 Zrotation Xrotation Yrotation
          JOINT LeftForeArm
          {
            OFFSET 32.7669 0.099144 -1.42434
            CHANNELS 3 Zrotation Xrotation Yrotation
            JOINT LeftHand
            {
              OFFSET 27.5643 0.085362 1.02216
              CHANNELS 3 Zrotation Xrotation Yrotation
              End Site
              {
                OFFSET 16.7443 -0.6 1.50291
              }
            }
          }
        }
      }
      JOINT RightShoulder
      {
        OFFSET -8.99 -0.362252 -0.22
        CHANNELS 3 Zrotation Xrotation Yrotation
        JOINT RightArm
        {
          OFFSET -10.2827 -0.00338 0.322123
          CHANNELS 3 Zrotation Xrotation Yrotation
          JOINT RightForeArm
          {
            OFFSET -32.8971 0.099144 -1.42434
            CHANNELS 3 Zrotation Xrotation Yrotation
            JOINT RightHand
            {
              OFFSET -27.4921 0.085362 1.02216
              CHANNELS 3 Zrotation Xrotation Yrotation
              End Site
              {
                OFFSET -16.6312 -0.6 1.50291
              }
            }
          }
        }
      }
    }
  }
  JOINT LeftUpLeg
  {
    OFFSET 8.9458 -8.66707 0.101652
    CHANNELS 3 Zrotation Xrotation Yrotation
    JOINT LeftLeg
    {
      OFFSET 0 -44.4227 1.3727
      CHANNELS 3 Zrotation Xrotation Yrotation
      JOINT LeftFoot
      {
        OFFSET -0.253549 -42.0924 -1.46059
        CHANNELS 3 Zrotation Xrotation Yrotation
        JOINT LeftToes
        {
          OFFSET -0.04 -4.41509 8.4991
          CHANNELS 3 Zrotation Xrotation Yrotation
          End Site
          {
            OFFSET 0.08 -0.047448 9.77979
          }
        }
      }
    }
  }
}
MOTION
Frames:	7
Frame Time:	0.0166667
-61.1121 96.3208 233.953 13.092 -1.30862 90.8278 -18.7815 4.91355 16.1049 -0.646371 -2.83912 -36.8487 -11.6226 25.274 1.13725 0.0462048 0.000533403 0.662642 3.22176 21.2923 -5.48077 -0.0179518 0.01108 -0.0095467 12.4359 -0.486415 -2.46663 1.98785e-016 -4.19933e-015 7.95139e-016 -141.793 -55.9555 -104.708 -46.5413 60.4364 -53.3301 20.3815 8.62008 -11.9369 10.9654 10.2133 -8.46104 106.799 -6.80353 72.6598 34.2357 56.3271 83.5751 18.4506 20.1477 1.31947 14.133 -6.73593 -1.96853 -26.7108 21.9431 44.7725 6.91427 -9.06517 1.41088 -1.17068e-009 1.56031e-007 -4.88293e-009 
-60.8245 96.2872 233.703 12.7686 -1.20929 90.8885 -18.7647 4.79097 15.779 -0.669346 -2.82137 -36.9639 -11.6089 25.8408 1.11716 0.0462048 0.000533403 0.662642 3.12441 20.6863 -6.17323 -0.0179518 0.01108 -0.0095467 12.9964 -0.629344 -2.56088 1.86212e-032 1.3418e-015 -7.95139e-016 -139.179 -55.8562 -102.683 -45.601 59.5087 -54.617 20.5198 9.98805 -12.4893 11.2203 10.5272 -7.24254 106.563 -7.65428 72.731 34.1364 56.392 84.0594 18.5429 20.1515 1.30726 13.8947 -7.09459 -2.15529 -26.716 21.7765 44.886 6.50822 -9.03636 1.3612 -1.17068e-009 1.56031e-007 -4.88293e-009 
-60.5552 96.2507 233.496 12.5174 -1.09151 90.9498 -18.7385 4.71508 15.3764 -0.691714 -2.81124 -36.9293 -11.6527 26.3817 1.10845 0.0462048 0.000533403 0.662642 2.85963 20.2685 -6.71346 -0.0179518 0.01108 -0.0095467 12.0237 -0.252786 -1.99708 -0 -1.06847e-015 -0 -136.775 -55.5109 -100.878 -44.7478 58.73 -55.8102 20.2769 10.6136 -12.4046 11.577 10.7451 -6.08981 106.33 -8.54577 72.787 34.0996 56.447 84.5237 18.6249 20.1424 1.29783 13.7127 -7.4486 -2.42938 -26.8651 21.682 45.4022 6.04065 -9.05962 1.31027 -1.17068e-009 1.56031e-007 -4.88294e-009 
-60.3054 96.2095 233.334 12.3319 -0.958936 91.0187 -20.7614 2.71021 15.1653 4.38322 0.0463296 -37.23 -12.8318 24.1408 0.853926 0.0462048 0.000533403 0.662642 2.46237 20.0146 -7.11778 -0.0179518 0.01108 -0.0095467 9.72056 0.485449 -0.76843 2.22419e-032 1.6027e-015 -7.95139e-016 -134.563 -54.9772 -99.2827 -43.9555 58.0805 -56.9578 20.2797 11.6831 -12.7216 12.0037 10.8864 -5.02196 106.116 -9.41908 72.8187 34.0768 56.4935 84.9816 18.7008 20.1298 1.28062 13.5824 -7.79712 -2.77709 -27.1368 21.6504 46.2567 5.51901 -9.13014 1.25642 -1.17068e-009 1.56031e-007 -4.88294e-009 
-60.074 96.1624 233.216 12.2057 -0.815729 91.0992 -21.6976 1.72774 14.7458 6.76611 1.61543 -37.3091 -13.4076 23.2489 0.735129 0.0462048 0.000533403 0.662642 1.95555 19.9055 -7.39689 -0.0179518 0.01108 -0.0095467 7.63988 1.05855 0.402111 1.98785e-016 -7.70291e-016 -0 -132.542 -54.3072 -97.8975 -43.229 57.5667 -58.0627 20.065 12.3073 -12.6388 12.4933 10.9585 -4.05952 105.907 -10.2233 72.8158 34.0255 56.5217 85.4542 18.794 20.1185 1.23936 13.4964 -8.13789 -3.18661 -27.5083 21.6705 47.3834 4.94953 -9.2402 1.19808 -1.17068e-009 1.56031e-007 -4.88294e-009 
-59.857 96.1088 233.136 12.1325 -0.666865 91.1925 -22.4379 0.957792 14.2589 8.66163 3.00878 -37.295 -13.8937 22.5693 0.647438 0.0462048 0.000533403 0.662642 1.36097 19.9213 -7.55992 -0.0179518 0.01108 -0.0095467 5.78075 1.48657 1.4962 -1.98785e-016 -1.23309e-015 7.95139e-016 -130.729 -53.5535 -96.7294 -42.6002 57.2107 -59.1141 20.0207 13.1515 -12.8017 13.0441 10.9658 -3.21783 105.682 -10.9242 72.7737 33.9175 56.5198 85.9578 18.8945 20.1175 1.17528 13.4459 -8.46658 -3.64889 -27.9572 21.7309 48.7201 4.33696 -9.38001 1.1342 -1.17068e-009 1.56031e-007 -4.88293e-009 
-59.6483 96.0484 233.084 12.1058 -0.517654 91.2972 -23.072 0.318948 13.7321 10.3 4.32619 -37.2081 -14.3482 21.9901 0.581344 0.0462048 0.000533403 0.662642 0.701873 20.0415 -7.61619 -0.0179518 0.01108 -0.0095467 4.13975 1.79185 2.50085 -9.93923e-017 1.25483e-015 1.59028e-015 -129.14 -52.7596 -95.7767 -42.0987 57.0334 -60.0832 19.8721 13.7088 -12.7223 13.6457 10.9143 -2.50263 105.428 -11.5062 72.6964 33.7438 56.484 86.4909 18.9914 20.1239 1.08339 13.4225 -8.77813 -4.15737 -28.4632 21.8212 50.2125 3.68434 -9.53928 1.06417 -1.17068e-009 1.56031e-007 -4.88294e-009 
